<?xml version="1.0" encoding="utf-8"?>
<!-- Generator: Adobe Illustrator 28.0.0, SVG Export Plug-In . SVG Version: 6.00 Build 0)  -->
<svg version="1.1" id="Layer_1" xmlns="http://www.w3.org/2000/svg" xmlns:xlink="http://www.w3.org/1999/xlink" x="0px" y="0px"
	 viewBox="0 0 84 84" style="enable-background:new 0 0 84 84;" xml:space="preserve">
<style type="text/css">
	.st0{fill:#FFFFFF;}
	.st1{clip-path:url(#SVGID_00000035529236067799843300000011034427846308806069_);}
	.st2{fill:#99B3FF;}
	.st3{fill:#3366FF;}
	.st4{fill:#DAFF86;}
</style>
<g id="bg">
	<g>
		<path class="st0" d="M0,70.4C0,78,5.6,84,12.6,84h58.8c7,0,12.6-6,12.6-13.6V13.6C84,6,78.4,0,71.4,0H12.6C5.6,0,0,6,0,13.6V70.4z
			"/>
	</g>
</g>
<g id="logo">
	<g>
		<g>
			<defs>
				<rect id="SVGID_1_" x="6" y="8.6" width="72" height="66.8"/>
			</defs>
			<clipPath id="SVGID_00000111191081351091198800000014795277006737540505_">
				<use xlink:href="#SVGID_1_"  style="overflow:visible;"/>
			</clipPath>
			<g style="clip-path:url(#SVGID_00000111191081351091198800000014795277006737540505_);">
				<path class="st2" d="M59.4,42.2l-4.3,8.6c-2.2,4.3-6.6,7.1-11.4,7.1H14.7c-4.8,0-8.7,3.9-8.7,8.7s3.9,8.7,8.7,8.7h58.9
					c3.5,0,5.6-3.9,3.6-6.8L59.4,42.2L59.4,42.2z"/>
				<path class="st3" d="M69.3,8.6H19.2C11.9,8.6,6,14.4,6,21.7v44.8c0-4.8,3.9-8.7,8.7-8.7h28.9c4.8,0,9.3-2.8,11.4-7.1l18.1-35.9
					C74.6,12,72.5,8.6,69.3,8.6z"/>
				<path class="st4" d="M45,35.6c2.9,0,5.3-1.9,5.3-4.1S48,27.4,45,27.4c-2.9,0-5.3,1.9-5.3,4.1S42.1,35.6,45,35.6z"/>
			</g>
		</g>
	</g>
</g>
</svg>
